# xmcd
#
# Track frame offsets: 
#        150
#        14709
#        29586
#        46786
#        62423
#        77365
#        92638
#        108674
#        124712
#        140522
#        156568
#        171873
#        192633
#        209734
#        222439
#
# Disc length: 3314 seconds
#
# Revision: 0
# Processed by: cddbd v1.5.2PL0 Copyright (c) Steve Scherf et al.
# Submitted via: ExactAudioCopyFreeDBPlugin 1.0
#
DISCID=df0cf00f
DTITLE=Various Artist - Live at the Bluebird Cafe: Thom Schuyler, J F
DTITLE=red Knobloch, Tony Arata and Jelly Roll Johnson
DYEAR=1900
DGENRE=Country
TTITLE0=Thom Schuyler - 16th Avenue
TTITLE1=Tony Arata - Here I Am
TTITLE2=Fred Knoblock - Jungle Room
TTITLE3=Thom Shuyler - Long Line of Love 
TTITLE4=Tony Arata - He Made Her Mine
TTITLE5=Fred Knobloch - I Like it Here
TTITLE6=Thom Schuyler - Old Yellow Car 
TTITLE7=Tony Atrata - Beer Tastes Better 
TTITLE8=Fred Knobloch - If My Heart Had Wings 
TTITLE9=Thom Schuyler - When She Danced With Me 
TTITLE10=Tony Arata - I Used to Worry 
TTITLE11=Fred Knobloch - A Lover is Forever 
TTITLE12=Thom Schulyer - Prayer for a Desperate Man 
TTITLE13=Tony Arata - The Dance 
TTITLE14=Fred Knobloch - Feels Like Mississippi 
EXTD=
EXTT0=
EXTT1=
EXTT2=
EXTT3=
EXTT4=
EXTT5=
EXTT6=
EXTT7=
EXTT8=
EXTT9=
EXTT10=
EXTT11=
EXTT12=
EXTT13=
EXTT14=
PLAYORDER=
